<svg fill="none" height="467" viewBox="0 0 466 467" width="466" xmlns="http://www.w3.org/2000/svg"><path d="m359.164 364.234c-.005 1.549-.623 3.032-1.718 4.127-1.096 1.094-2.58 1.711-4.128 1.715h-316.2274c-1.5487-.004-3.033-.62-4.1288-1.715-1.0958-1.094-1.714-2.578-1.7197-4.127l-2.6323-181.726c0-3.214 3.7857-9.488 10.723-9.017l309.0532-7.995c8.172-.378 15.495 6.885 15.121 15.076z" fill="#c4cdd5"/><path d="m376.839 385.161h-356.856c-2.1144-.006-4.1406-.849-5.6362-2.343-1.4956-1.495-2.3392-3.521-2.3468-5.635.0063-2.115.8494-4.142 2.3452-5.638 1.4957-1.496 3.5225-2.339 5.6378-2.345h356.856c2.115.006 4.142.849 5.638 2.345 1.495 1.496 2.338 3.523 2.345 5.638-.008 2.114-.852 4.14-2.347 5.635-1.496 1.494-3.522 2.337-5.636 2.343z" fill="#c4cdd5"/><path d="m44.6295 201.278-1.0098-86.846c-.0132-1.147.223-2.283.6922-3.329.4691-1.047 1.16-1.979 2.0248-2.732s1.8829-1.309 2.9839-1.63c1.1009-.32 2.2585-.398 3.3924-.228l23.5687 3.568c1.8725.284 3.5812 1.23 4.8158 2.666 1.2347 1.437 1.9135 3.268 1.9133 5.162v79.184z" fill="#77f0ed"/><path d="m353.387 358.628c-.004 1.466-.589 2.87-1.625 3.907-1.037 1.037-2.442 1.621-3.908 1.625h-303.1373c-1.4657-.004-2.8701-.588-3.9064-1.625-1.0362-1.037-1.62-2.441-1.6238-3.907l-2.4863-164.971c.2943-9.929 8.9977-13.497 14.2742-13.286l296.2056-7.947c5.743-.268 10.89 4.841 10.617 10.598z" fill="#f4f6f8"/><path d="m175.348 290.886-28.661-21.001 28.733-23.322c1.969-1.541-.508-4.633-2.441-3.008l-30.686 24.904c-.227.188-.41.426-.532.695-.123.269-.183.562-.175.858.007.295.081.585.217.848.136.262.33.49.567.667l30.683 22.494c1.991 1.493 4.351-1.665 2.295-3.135z" fill="#919eab"/><path d="m236.142 268.46-30.683-24.904c-1.926-1.613-4.422 1.45-2.443 3.008l28.732 23.322-28.656 21.001c-.208.149-.385.338-.52.556s-.225.461-.265.714c-.041.253-.031.511.029.761.06.249.169.484.321.69.151.207.342.382.561.514.22.133.463.221.717.258.253.038.512.025.76-.037.249-.063.482-.175.687-.328l30.683-22.494c.236-.177.429-.405.564-.667s.209-.551.216-.845c.008-.295-.052-.587-.174-.855-.121-.269-.302-.506-.529-.694z" fill="#919eab"/><path d="m194.65 238.049c-.25-.047-.507-.044-.756.008s-.485.153-.695.297c-.21.143-.39.327-.529.54s-.235.451-.281.701l-11.334 60.229c-.047.251-.044.508.008.757s.153.485.296.695c.144.211.327.391.541.53.213.139.451.235.701.282s.507.045.756-.007c.25-.053.486-.153.696-.297.21-.143.39-.327.53-.54.139-.213.235-.452.282-.702l11.331-60.239c.093-.503-.017-1.024-.307-1.447-.289-.422-.735-.713-1.239-.807z" fill="#919eab"/><path d="m101.628 329.928 171.884-.751c.39-.003.778.071 1.139.218.362.148.69.366.967.641.277.276.495.604.644.965s.224.748.222 1.139l-.366 60.164c-.002.393-.083.781-.237 1.142-.155.361-.38.688-.662.961-.283.272-.617.486-.983.627-.367.142-.757.209-1.15.197-15.155-.452-170.501-2.446-173.4731-2.321-2.9338.124-1.3401-47.382-.9022-60.139.0259-.758.3438-1.477.8874-2.007.5439-.53 1.2709-.829 2.0299-.836z" fill="#fdab76"/><path d="m101.628 329.93 171.884-.752c.39-.003.778.071 1.139.219.362.147.69.365.967.641.277.275.495.603.644.964s.224.748.222 1.139l-.366 60.165c-.002.392-.083.781-.237 1.142-.155.361-.38.687-.662.96-.283.273-.617.486-.983.628-.367.141-.757.208-1.15.196-15.155-.452-170.501-2.445-173.4731-2.321-2.9338.125-1.3401-47.381-.9022-60.138.0259-.759.3438-1.478.8874-2.008.5439-.53 1.2709-.829 2.0299-.835z" fill="#fff" opacity=".48"/><g fill="#fdab76" opacity=".24"><path d="m205.38 347.54c-.256 15.055-22.649 15.052-22.905 0 .258-15.054 22.652-15.051 22.905 0z"/><path d="m233.845 347.54c-.256 15.055-22.65 15.052-22.906 0 .256-15.054 22.652-15.051 22.906 0z"/><path d="m262.31 347.916c-.259 15.054-22.652 15.052-22.906 0 .256-15.054 22.65-15.052 22.906 0z"/></g><path d="m200.735 345.117c2.029 4.676-1.675 10.263-6.806 10.151-9.907-.204-9.533-15.002.371-14.703v-1.866c-12.355-.256-12.726 18.186-.368 18.426 6.446.143 11.086-6.894 8.514-12.76z" fill="#fa541c"/><path d="m226.189 354.141c-11.41 6.021-16.461-13.226-3.548-13.571v-1.866c-16.05.567-9.745 24.442 4.472 17.057z" fill="#fa541c"/><path d="m256.997 352.056c-3.693 5.892-13.693 2.958-13.439-4.135 0-.997.204-1.983.597-2.9.394-.916.969-1.742 1.692-2.429.722-.687 1.577-1.22 2.511-1.567.935-.347 1.931-.5 2.927-.45v-1.867c-1.241-.049-2.479.153-3.64.593-1.161.441-2.222 1.112-3.117 1.972-.896.86-1.608 1.892-2.095 3.035-.488 1.142-.739 2.371-.74 3.613-.184 8.926 12.013 12.58 16.814 5.229z" fill="#fa541c"/><path d="m65.9892 362.679s-.4164 2.362-.6222 4.697c-.0182.217.0076.435.0759.642.0684.207.1778.397.3218.561.144.163.3195.295.516.389.1965.093.4099.146.6274.155 1.7397-.213 13.4008 1.23 12.6255-.443.4379-.564-11.3668-5.408-11.6013-5.688z" fill="#063963"/><path d="m65.6504 361.291.335 2.824s1.9288.897 3.2449-.113l-.7992-3.149z" fill="#fdbab9"/><path d="m65.9043 308.18c-.6246.809.1268 37.896 2.7567 53.62-.5193.134-3.4794 1.422-4.0681-.04-1.1031-3.753-6.3845-22.545-7.0737-40.497-.7705-20.061 0-.685 0-.685l.4523-12.4z" fill="#212b36"/><path d="m53.3376 363.909s-.6628 1.197-1.3065 4.363c-.0279.134-.0271.273.0022.408.0294.134.0867.261.1681.371.0815.111.1853.204.3048.272.1194.068.2519.11.3887.123 1.0649-.141 4.8578 1.156 4.8507-.868-.1412-1.158-.5791-3.054-1.9312-4.533z" fill="#063963"/><path d="m52.7568 360.276.7873 4.271s.773.577 2.3069.161l-.3757-4.597z" fill="#fdbab9"/><path d="m50.6379 309.289c-3.1539 19.033.6844 47.044 1.979 52.526.1053 1.06 3.6302 1.091 3.7212-.172.1746-4.432-.1388-31.641 2.7998-42.395.1124-1.448 5.7623-4.494 6.6453-5.403l.4427-6.555z" fill="#212b36"/><path d="m70.7368 273.222c-9.4524-.156-19.8811 2.481-19.8811 2.481-2.8189 16.44-.4929 35.402-.4929 35.402 7.3178 1.914 15.5712-1.175 15.5712-1.175 1.2157-6.87 6.8895-26.208 6.8895-26.208 4.6184-.572 8.4233-1.914 11.5557-3.666-2.393-2.771-3.5153-6.296-4.0058-8.376-3.3407 1.034-6.7291 1.589-9.6366 1.542z" fill="#fa541c"/><path d="m98.6541 259.299c-.2385-.314-.5729-.541-.9526-.648-.3796-.107-.7837-.087-1.1508.057-1.3904 5.877-8.6842 10.639-16.1767 12.968.4906 2.084 1.6177 5.609 4.0059 8.375 12.434-6.987 14.2742-20.752 14.2742-20.752z" fill="#fdbab9"/><path d="m98.4273 259.586c.0981.309-1.0266.778-1.6894-.478-.024-.606-.3925-3.197-.0312-3.693 1.9288-2.632 5.6643-5.918 5.6643-5.918.175.152.285.365.305.596.021.23-.049.459-.195.639l-1.811 1.888c.717 1.125 1.634 2.609.804 3.961-.505 1.163-2.0584 3.252-3.0467 3.005z" fill="#fdbab9"/><path d="m54.4827 284.856-3.6254-9.154s-8.8278 6-10.2899 13.605c2.6662.188 5.2715.887 7.6743 2.058.6629-3.592 6.241-6.509 6.241-6.509z" fill="#fa541c"/><path d="m61.0032 300.555 5.4106-18.893c.0293-.105.0891-.198.1718-.269.0827-.07.1845-.114.2924-.126 3.7737-.455 14.4585-1.496 18.3782-1.089 2.1537-.593-9.3518 20.034-11.1753 21.197l-12.5513-.117c-.0851 0-.1691-.02-.2452-.059-.076-.038-.1422-.093-.1932-.162-.0511-.068-.0856-.147-.1008-.231-.0153-.083-.0109-.17.0128-.251z" fill="#212b36"/><path d="m74.5411 278.915 3.9198-.654c.0479-.008.0972-.004.1429.013.0458.016.0866.044.1184.081.0317.037.0535.081.063.129.0096.048.0067.097-.0085.143-.1292.185-.2967 1.381-.6198 1.369l-3.7737.51c-.0452.006-.0912.001-.134-.014-.0429-.016-.0813-.041-.1119-.075-.0307-.034-.0527-.074-.064-.119-.0114-.044-.0118-.09-.0012-.134.1101-.208.1292-1.242.469-1.249z" fill="#fdab76"/><path d="m71.6034 282.237c.1675-.297.1245-2.018.6677-1.999l7.9208-.801c.062-.007.1248.001.1829.024.0582.022.11.059.1509.106.041.047.0699.103.0843.164s.0138.124-.0017.184c-.1939.288-.3016 2.46-.8615 2.393l-7.7414.39c-.0588.003-.1175-.007-.1717-.03-.0542-.024-.1025-.059-.1412-.103-.0387-.045-.0668-.097-.0822-.154s-.0178-.117-.0069-.174z" fill="#fdab76"/><path d="m62.1978 293.466c-.3948.687-14.5279 6.701-13.9464-2.101-2.4028-1.17-5.0081-1.869-7.6743-2.058-1.3042 19.073 19.96 9.592 22.9321 6.605z" fill="#fdbab9"/><path d="m62.3127 295.991c-1.7517-6.99 1.2802-7.32 6.686-5.265 0 0-.1172 1.436-1.6105.972l.9261.718s-.1316 1.146-1.3927.533l.8615.958s-.5409.94-1.4693.337c-.9285-.603-1.3712 2.12-4.0011 1.747z" fill="#fdbab9"/><path d="m61.1644 265.549-3.008 8.696c-.0245.07-.0236.146.0027.215.0263.07.0762.127.1409.163.8184.453 3.7738 1.764 7.3322-.493 1.1079-.273 1.3472-7.76 1.6535-8.581z" fill="#fdbab9"/><path d="m67.7059 257.494c2.259 4.03 6.9109 14.679-5.2096 9.02l-2.4983-6.701z" fill="#fdbab9"/><path d="m62.6532 263.216c.4786-.39-.7945-1.498-.8064-2.323 0 0-.5959-.381 1.51-.886 2.1058-.505 5.243-1.285 5.9035-3.077.6413-1.747-1.0482-6.138-3.7427-2.632-.6078.44-1.4358-2.078-3.6254-1.041-1.5075.677-1.6751 1.782-1.6583 2.34-.2034.718-2.6084-.701-3.7522 1.869-1.1415 2.154.7179 2.895.0622 3.276-.5025.155-1.151.579-1.084 1.754.1699 1.867 2.0149 1.268 2.649 1.488.4451.491 2.4433 2.575 4.6041 2.827.0432.004.0869-.002.127-.019.0401-.016.0754-.043.1026-.077.0272-.033.0454-.074.0529-.116.0076-.043.0043-.087-.0097-.128l-.9356-2.716c-.1316-.333.4211-.431.603-.539z" fill="#770508"/><path d="m63.0303 263.604c-4.0825-2.658-2.7616 2.482.7179 1.197z" fill="#fdbab9"/><path d="m370.855 157.506-147.059-.718c-1.773-.015-3.211 1.945-3.199 4.357l.325 58.184c.015 2.426 1.491 4.36 3.274 4.288l146.212-3.132c1.701-.07 3.058-1.951 3.082-4.265l.512-54.345c.034-2.381-1.383-4.345-3.147-4.369z" fill="#fdab76"/><path d="m370.855 157.506-147.059-.718c-1.773-.014-3.211 1.946-3.199 4.358l.325 58.183c.015 2.427 1.491 4.36 3.274 4.288l146.212-3.132c1.701-.069 3.058-1.95 3.082-4.264l.512-54.345c.034-2.381-1.383-4.346-3.147-4.37z" fill="#fff" opacity=".48"/><path d="m191.589 140.846c-1.407-5.394-5.294-14.143-15.808-15.45-13.978-1.737-122.4356-2.78-141.9242-2.952-.8437-.009-1.6619.288-2.3043.835s-1.0656 1.307-1.1919 2.141c.1221 1.675-4.7525 26.163 2.6156 25.328l155.3508-5.504c.525-.02 1.04-.157 1.505-.402s.869-.592 1.182-1.014.527-.91.627-1.426c.099-.516.082-1.048-.052-1.556zm-7.866-.465-146.1307 5.16c-.4487.017-.8963-.056-1.3166-.214s-.8049-.398-1.1313-.707c-.3264-.308-.588-.678-.7697-1.089-.1816-.411-.2796-.853-.2882-1.302-.0217-3.774.1861-7.546.6222-11.295.1049-.949.5584-1.825 1.2725-2.458s1.6379-.978 2.5922-.969c57.6712.539 126.3116 1.594 136.5846 2.872 4.401-.393 13.995 8.65 8.565 10.002z" fill="#116e95"/><path d="m37.6172 122.104c.012 7.069.1221 24.202.9022 33.157.0704.798.4388 1.539 1.0318 2.077s1.367.833 2.1676.826c8.1769-.048 31.6881-.321 42.6959-1.855.694-.098 1.3363-.422 1.8273-.922.4911-.5.8034-1.149.8887-1.844-.0694-2.975 4.8482-32.349-2.5461-33.191-7.4782-.347-31.8436-1.436-43.7655-1.455-.4213-.001-.8386.081-1.2279.242-.3894.16-.7431.397-1.0407.695s-.5333.652-.6935 1.041c-.1602.39-.2417.807-.2398 1.229z" fill="#22b8cf"/><path d="m47.5876 124.65.7849 24.777c.0251.897.405 1.748 1.0564 2.365s1.5211.951 2.4183.928l21.2498-.553c.8837-.023 1.7236-.389 2.3405-1.022.617-.634.9621-1.483.9618-2.367v-23.113c-.0007-.87-.3349-1.706-.9338-2.336s-1.4167-1.006-2.2848-1.051l-22.0323-1.119c-.468-.025-.936.049-1.3743.215s-.8374.421-1.172.749c-.3347.328-.5976.722-.7722 1.157s-.2571.901-.2423 1.37z" fill="#116e95"/><path d="m174.247 138.536h-2.013v61.388h2.013z" fill="#22b8cf"/><path d="m184.158 137.911-.206 62.002 2.013.007.205-62.002z" fill="#22b8cf"/><path d="m186.441 201.278c-.161 9.465-14.239 9.462-14.399 0 .163-9.462 14.238-9.462 14.399 0z" fill="#063963"/><path d="m183.519 201.279c-.095 5.621-8.456 5.621-8.552 0 .096-5.621 8.457-5.619 8.552 0z" fill="#22b8cf"/><path d="m174.298 227.465-2.465-13.446c-.121-.66-.096-1.339.075-1.988.17-.649.481-1.253.911-1.768.43-.516.968-.931 1.576-1.215.607-.285 1.27-.432 1.942-.432h6.126c.734-.001 1.461.151 2.134.445.673.295 1.278.725 1.777 1.264.499.54.881 1.177 1.121 1.871.241.694.335 1.43.278 2.163l-1.077 13.834c-.074.903-.338 1.78-.776 2.573s-1.039 1.485-1.763 2.029c-10.805 8.344-6.689 27.28 8.706 24.628 4.711-.878 7.274-6.561 6.26-10.818-.093-.319-.121-.654-.083-.984.039-.33.143-.649.308-.938.164-.289.384-.542.648-.744s.566-.349.888-.432c.321-.083.657-.101.985-.052.329.049.644.163.928.336s.53.401.724.671.331.576.404.901c8.376 34.586-56.989 17.617-31.525-11.578.802-.823 1.393-1.827 1.723-2.927.331-1.101.39-2.264.175-3.393z" fill="#22b8cf"/><path d="m186.441 137.483c-.161 9.465-14.239 9.462-14.399 0 .163-9.461 14.238-9.461 14.399 0z" fill="#063963"/><path d="m183.519 137.484c-.095 5.621-8.456 5.621-8.552 0 .096-5.621 8.457-5.619 8.552 0z" fill="#22b8cf"/><path d="m302.495 141.092-24.799 2.613c-.724.077-1.457.001-2.15-.224-.693-.224-1.331-.592-1.872-1.079-.542-.488-.975-1.083-1.271-1.749-.297-.665-.45-1.386-.45-2.114v-28.623c.001-1.249.451-2.456 1.27-3.4.818-.945 1.949-1.562 3.186-1.74l24.81-3.57c.738-.107 1.489-.053 2.203.156.715.21 1.376.571 1.939 1.058.563.488 1.014 1.091 1.324 1.768.309.677.469 1.413.469 2.158v29.582c0 1.285-.477 2.524-1.337 3.477-.861.954-2.044 1.555-3.322 1.687z" fill="#fee9d1"/><g fill="#fdab76"><path d="m330.026 93.1344 1.197-.0407c.063-.0022.125.0208.171.0641.047.0434.074.1033.076.1668.003.0635-.02.1252-.064.1717-.043.0464-.103.0738-.167.076l-1.196.0431c-.064.0022-.126-.021-.173-.0646-.046-.0435-.074-.1038-.076-.1676-.002-.0637.021-.1258.065-.1725.043-.0466.103-.0741.167-.0763z"/><path d="m332.419 93.067 1.197-.0239c.063 0 .124.0252.169.07.045.0449.07.1058.07.1693 0 .0634-.025.1243-.07.1692-.045.0448-.106.0701-.169.0701l-1.197.0239c-.063 0-.124-.0252-.169-.0701s-.07-.1057-.07-.1692.025-.1243.07-.1692.106-.0701.169-.0701z"/><path d="m334.815 93.0262h1.196c.064 0 .124.0252.169.0701s.07.1058.07.1692c0 .0635-.025.1244-.07.1692-.045.0449-.105.0701-.169.0701l-1.196.012c-.065 0-.128-.0258-.174-.0718s-.072-.1084-.072-.1735c0-.065.026-.1274.072-.1734s.109-.0719.174-.0719z"/><path d="m337.208 93.0075h1.196c.064 0 .124.0252.169.0701s.07.1058.07.1692c0 .0635-.025.1244-.07.1692-.045.0449-.105.0701-.169.0701h-1.196c-.064 0-.125-.0252-.17-.0701-.044-.0448-.07-.1057-.07-.1692 0-.0634.026-.1243.07-.1692.045-.0449.106-.0701.17-.0701z"/><path d="m339.601 93.0122h1.196c.064 0 .124.0252.169.0701s.07.1057.07.1692-.025.1243-.07.1692-.105.0701-.169.0701h-1.196c-.064 0-.125-.0252-.17-.0701-.044-.0449-.07-.1057-.07-.1692s.026-.1243.07-.1692c.045-.0449.106-.0701.17-.0701z"/><path d="m341.994 93.0362c.213.0766 1.471-.1819 1.435.2585.029.4427-1.225.1459-1.435.2153-.057-.0081-.11-.0365-.147-.0801-.038-.0435-.059-.0992-.059-.1568s.021-.1133.059-.1568c.037-.0435.09-.072.147-.0801z"/><path d="m344.389 93.079c.211.079 1.469-.1699 1.436.2704.024.4403-1.225.134-1.436.2034-.057-.0081-.109-.0365-.147-.0801-.038-.0435-.059-.0992-.059-.1568s.021-.1133.059-.1568.09-.072.147-.0801z"/><path d="m346.78 93.1337c.21.0814 1.474-.1579 1.435.2824.022.4403-1.227.1244-1.435.1914-.057-.0081-.11-.0365-.147-.08-.038-.0436-.059-.0992-.059-.1569 0-.0576.021-.1133.059-.1568.037-.0435.09-.0719.147-.0801z"/><path d="m349.173 93.2207c.21.0813 1.474-.146 1.423.2919.017.4403-1.227.1149-1.435.1795-.056-.011-.105-.0412-.141-.0853-.035-.044-.053-.0991-.052-.1555.002-.0563.023-.1104.06-.1526.038-.0422.089-.0698.145-.078z"/><path d="m351.563 93.3188c.211.0862 1.477-.134 1.422.3039.014.4403-1.228.1053-1.436.1675-.055-.0112-.105-.0417-.14-.0859-.035-.0443-.053-.0994-.052-.1558.002-.0564.024-.1104.061-.1524.038-.042.089-.0694.145-.0773z"/><path d="m353.956 93.4379 1.197.0646c.063.0035.123.0321.165.0794s.064.1096.061.1731c-.004.0634-.032.1229-.08.1653-.047.0424-.109.0643-.173.0608l-1.196-.0646c-.032-.0017-.062-.0096-.091-.0233-.028-.0136-.054-.0327-.075-.0561-.042-.0473-.064-.1096-.06-.1731.003-.0634.032-.1229.079-.1653s.11-.0643.173-.0608z"/><path d="m356.347 93.5745 1.196.0766c.064.0041.123.0333.165.0811s.063.1103.059.1737c-.004.0635-.033.1227-.081.1647s-.11.0632-.174.0591l-1.196-.0742c-.064-.0041-.124-.0334-.166-.0814-.042-.0481-.063-.1109-.059-.1746.004-.0638.033-.1234.081-.1656.048-.0421.111-.0635.175-.0594z"/><path d="m358.735 93.7301c.206.0886 1.474-.0981 1.409.335 0 .4379-1.23.0742-1.435.134-.054-.0136-.102-.0456-.134-.0903-.033-.0448-.05-.0996-.046-.155.003-.0555.025-.1081.063-.1489.037-.0408.088-.0672.143-.0748z"/><path d="m361.121 93.9068c.206.0909 1.476-.0862 1.407.347 0 .4355-1.23.0622-1.436.1196-.052-.0149-.098-.0473-.13-.0919-.031-.0445-.047-.0985-.043-.153.003-.0544.025-.1061.062-.1464.036-.0404.086-.0669.14-.0753z"/><path d="m363.507 94.1031 1.196.1053c.051.017.095.0509.125.0962.03.0452.043.0992.038.153-.005.0539-.028.1044-.065.1435-.038.039-.087.0642-.141.0715l-1.196-.1053c-.052-.017-.096-.0509-.125-.0962-.03-.0452-.043-.0992-.038-.153.005-.0539.028-.1044.065-.1435.037-.039.087-.0642.141-.0715z"/><path d="m365.892 94.3302c.204.0934 1.477-.0598 1.403.3709 0 .4356-1.233.0407-1.436.0934-.051-.0163-.096-.0493-.126-.0938s-.044-.0979-.04-.1516c.003-.0536.025-.1044.062-.1441.036-.0397.084-.066.137-.0748z"/><path d="m368.273 94.5695 1.197.1269c.05.0183.093.053.121.0984s.04.099.035.1521c-.006.0532-.03.1029-.067.1412s-.086.0629-.139.0701l-1.197-.1268c-.05-.0184-.093-.0531-.121-.0985s-.04-.099-.034-.1521c.005-.0532.029-.1028.066-.1411s.086-.063.139-.0702z"/><path d="m370.654 94.8088 1.197.1388c.049.0195.09.0547.117.1.027.0454.039.0985.032.1509-.006.0525-.029.1014-.066.1391s-.086.0622-.138.0695l-1.197-.1364c-.05-.0188-.092-.0538-.12-.0996s-.04-.0997-.034-.153c.007-.0533.031-.1029.069-.1408.038-.038.087-.0621.14-.0685z"/><path d="m373.033 95.0986c.199.1005 1.477-.0167 1.388.4092-.019.4331-1.23 0-1.436.0503-.049-.019-.09-.0535-.118-.0983-.027-.0449-.039-.0975-.034-.1498.006-.0523.028-.1013.065-.1395.036-.0382.083-.0635.135-.0719z"/><path d="m375.402 95.4052 1.197.1603c.049.0202.09.0562.117.1023.026.0462.037.0999.029.1526-.007.0527-.032.1015-.07.1386-.038.037-.088.0602-.141.066l-1.196-.1627c-.049-.0208-.089-.0569-.114-.1026-.026-.0458-.036-.0987-.028-.1506.007-.0519.031-.1.068-.1369.038-.0368.086-.0604.138-.067z"/><path d="m377.781 95.7352 1.196.1723c.049.0209.088.0572.114.1031.026.046.035.099.028.151-.008.052-.033.1001-.07.1368-.038.0366-.086.0599-.139.0661l-1.182-.1723c-.048-.0199-.088-.0549-.114-.0997-.027-.0448-.038-.097-.032-.1486.006-.0517.029-.0999.065-.1376.035-.0377.083-.0626.134-.0711z"/><path d="m380.15 96.0895c.194.1052 1.476.0287 1.373.4498-.031.4332-1.23-.0335-1.435 0-.045-.0222-.082-.0581-.106-.1025-.023-.0444-.032-.0951-.025-.1448.006-.0498.029-.0962.064-.1325.034-.0364.079-.0609.129-.07z"/><path d="m382.514 96.4704c.194.1077 1.477.0478 1.369.4786-.036.4307-1.23-.0503-1.436 0-.063-.0089-.121-.0427-.159-.0938-.039-.0512-.055-.1156-.047-.179.009-.0635.043-.1208.094-.1594s.116-.0553.179-.0464z"/><path d="m384.876 96.8789c.192.1101 1.474.0646 1.362.4786-.041.4308-1.228-.0646-1.436-.0287-.046-.023-.084-.0605-.107-.1068-.024-.0463-.031-.0989-.022-.1499.009-.0509.035-.0976.072-.1329.038-.0352.087-.0572.138-.0627z"/><path d="m387.231 97.3149c.189.1125 1.474.0838 1.357.5002-.046.4283-1.228-.0814-1.436-.0479-.047-.0229-.084-.0602-.108-.1063-.023-.046-.031-.0985-.022-.1494s.034-.0975.072-.133c.037-.0354.085-.0577.137-.0636z"/><path d="m389.581 97.781 1.172.2393c.045.0247.081.0632.102.1096.021.0465.027.0985.017.1485-.011.05-.037.0954-.075.1294-.038.0341-.086.0551-.137.06l-1.17-.2393c-.046-.0242-.082-.0625-.105-.1091-.022-.0467-.028-.0992-.018-.1499.01-.0506.037-.0965.075-.1309.039-.0345.087-.0555.139-.06z"/><path d="m391.926 98.2787c.184.1172 1.469.1244 1.342.5336-.059.426-1.227-.1125-1.435-.0861-.045-.0251-.081-.0639-.102-.1108-.021-.0468-.027-.0992-.016-.1494s.038-.0955.077-.1292c.039-.0338.087-.0541.139-.0581z"/><path d="m394.261 98.8106 1.166.2775c.044.026.079.0653.099.1124.02.047.024.0993.012.1491-.011.0497-.039.0944-.078.1275s-.087.0527-.139.0561l-1.163-.2775c-.044-.0258-.078-.065-.098-.1118-.021-.0469-.025-.0989-.014-.1486.012-.0497.039-.0944.078-.1277.038-.0332.087-.0532.137-.057z"/><path d="m396.59 99.3752c.182.122 1.464.1675 1.326.5743-.07.4215-1.221-.1508-1.436-.1316-.044-.0266-.077-.0663-.097-.1134-.019-.047-.022-.099-.01-.1483s.04-.0934.079-.126c.039-.0325.087-.0518.138-.055z"/><path d="m398.911 99.9781c.177.1249 1.462.1919 1.316.5939-.079.421-1.22-.173-1.436-.156-.041-.028-.073-.068-.091-.115-.017-.047-.02-.099-.007-.147.014-.048.042-.092.081-.123.039-.0317.087-.0501.137-.0529z"/><path d="m401.22 100.617 1.151.335c.041.029.073.07.089.117.017.047.018.099.004.147s-.042.09-.082.121c-.039.031-.087.049-.138.051l-1.148-.333c-.042-.028-.074-.069-.092-.116-.017-.047-.019-.099-.005-.148.014-.048.043-.091.082-.123.04-.031.089-.049.139-.051z"/><path d="m403.52 101.299 1.144.356c.057.018.105.058.132.111.028.053.034.115.016.172s-.057.105-.11.132c-.053.028-.115.034-.172.016l-1.144-.354c-.041-.029-.071-.071-.087-.118-.016-.048-.016-.099-.001-.147.014-.047.044-.089.084-.12.04-.03.088-.047.138-.048z"/><path d="m405.805 102.021 1.137.381c.057.019.104.06.13.113.027.054.031.116.012.173s-.06.104-.113.13c-.054.027-.116.031-.173.012l-1.134-.378c-.04-.03-.07-.072-.085-.119-.015-.048-.014-.099.001-.147.016-.047.046-.089.086-.118.041-.03.089-.046.139-.047z"/><path d="m408.076 102.793 1.13.402c.039.031.067.073.08.121.014.048.012.099-.005.146s-.048.088-.089.116-.09.043-.14.042l-1.127-.402c-.028-.009-.053-.025-.075-.045-.022-.019-.04-.043-.053-.07s-.02-.056-.022-.086c-.001-.029.003-.059.013-.087s.025-.054.045-.076.044-.04.07-.052c.027-.013.056-.021.086-.022.03-.002.059.003.087.013z"/><path d="m410.34 103.61c.163.142 1.436.335 1.249.718-.117.409-1.196-.292-1.407-.296-.055-.022-.099-.065-.123-.118-.024-.054-.025-.115-.005-.171.021-.055.062-.1.116-.124.053-.025.114-.028.17-.009z"/><path d="m412.565 104.482c.158.143 1.436.37 1.233.749-.129.404-1.197-.324-1.4-.333-.051-.025-.091-.068-.112-.121-.02-.054-.02-.113.001-.165.022-.053.062-.096.114-.12.051-.024.11-.028.164-.01z"/><path d="m414.779 105.408 1.096.478c.054.024.097.068.118.124.022.055.021.116-.003.171-.024.054-.068.096-.124.118-.055.022-.116.02-.171-.004 0 0-1.093-.478-1.096-.478-.047-.028-.083-.072-.1-.125-.017-.052-.014-.109.008-.16.022-.05.062-.091.112-.114s.107-.026.16-.01z"/><path d="m416.966 106.391c.151.153 1.402.448 1.197.814-.149.397-1.168-.388-1.379-.407-.046-.029-.08-.073-.096-.125s-.012-.108.01-.158c.022-.049.062-.089.111-.112s.105-.027.157-.012z"/><path d="m419.125 107.44 1.067.548c.053.027.092.074.111.13.018.056.013.117-.014.17s-.074.093-.13.111c-.057.018-.118.013-.17-.014l-1.065-.546c-.053-.026-.094-.073-.112-.129-.019-.056-.014-.118.012-.171.027-.053.074-.093.13-.112.056-.018.118-.014.171.013z"/><path d="m421.25 108.554c.141.161 1.371.536 1.136.888-.174.383-1.139-.462-1.349-.495-.052-.028-.091-.076-.108-.133s-.01-.118.018-.17.076-.091.133-.107c.056-.017.118-.011.17.017z"/><path d="m423.336 109.742 1.029.622c.051.032.087.082.1.14s.003.119-.029.17c-.032.05-.082.086-.14.099-.059.014-.12.003-.17-.029l-1.022-.619c-.046-.032-.079-.08-.091-.136-.013-.055-.004-.112.025-.161.028-.048.074-.084.128-.1.055-.017.113-.011.163.014z"/><path d="m425.38 111.005c.129.17 1.328.624 1.072.957-.196.371-1.108-.536-1.311-.584-.044-.034-.074-.083-.084-.138-.009-.055.002-.111.032-.158s.077-.081.131-.095c.053-.015.111-.008.16.018z"/><path d="m427.385 112.314c.127.172 1.319.648 1.056.976-.201.369-1.096-.555-1.3-.605-.045-.034-.075-.084-.084-.14-.01-.055.002-.113.033-.16s.079-.08.134-.094c.054-.013.112-.005.161.023z"/><path d="m429.369 113.661c.122.175 1.307.672 1.039.993-.211.364-1.087-.574-1.29-.629-.039-.036-.065-.084-.071-.136-.007-.052.005-.105.034-.149s.073-.076.123-.091c.051-.014.105-.01.153.012z"/><path d="m431.329 115.045c.117.177 1.29.698 1.015 1.014-.216.359-1.072-.598-1.276-.655-.042-.037-.07-.088-.076-.143-.007-.056.008-.112.041-.157.033-.046.081-.077.136-.088s.112-.001.16.029z"/><path d="m433.258 116.468c.112.179 1.273.718.993 1.036-.223.354-1.06-.622-1.259-.684-.047-.036-.077-.088-.085-.146s.007-.116.042-.163.088-.077.145-.086c.058-.008.117.008.164.043z"/><path d="m435.153 117.935.936.751c.04.038.065.09.069.146.004.055-.013.11-.048.153-.035.044-.085.072-.14.08s-.111-.005-.157-.036l-.933-.749c-.227-.173.053-.529.273-.345z"/><path d="m437.015 119.457c.105.184 1.237.792.94 1.086-.239.34-1.026-.674-1.223-.749-.222-.186.067-.533.283-.337z"/><path d="m438.836 121.012c.098.185 1.211.826.909 1.111-.251.332-1.007-.704-1.196-.783-.211-.184.076-.524.287-.328z"/><path d="m440.609 122.627.866.831c.021.02.038.043.049.07.012.026.018.054.019.083 0 .028-.005.057-.015.084-.01.026-.026.051-.046.072-.019.02-.043.037-.069.048-.027.012-.055.018-.083.019-.029.001-.058-.004-.084-.015-.027-.01-.052-.026-.072-.045l-.867-.826c-.213-.191.096-.522.302-.321z"/><path d="m442.327 124.303.84.859c.199.201-.12.512-.313.307 0 0-.833-.857-.836-.857-.205-.199.113-.517.309-.309z"/><path d="m443.988 126.04c.076.194 1.117.958.787 1.197-.282.301-.926-.807-1.11-.905-.037-.043-.056-.099-.053-.156.004-.056.029-.11.072-.148.042-.038.097-.058.154-.056s.111.027.15.068z"/><path d="m445.577 127.832c.067.199 1.074 1 .734 1.235-.296.289-.89-.847-1.069-.957-.189-.201.155-.491.335-.278z"/><path d="m447.082 129.718c.06.199 1.024 1.051.672 1.269-.308.273-.842-.89-1.017-1.005-.028-.046-.039-.101-.029-.155.009-.053.039-.101.082-.134s.097-.048.151-.044c.054.005.104.03.141.069z"/><path d="m448.492 131.661c.047.204.957 1.108.603 1.304-.324.256-.795-.935-.958-1.06-.022-.046-.027-.1-.014-.15.014-.05.045-.093.087-.123.043-.029.095-.043.146-.037.052.005.1.029.136.066z"/><path d="m449.789 133.693c.033.206.892 1.166.519 1.338-.338.239-.732-.981-.89-1.115-.03-.049-.039-.108-.025-.164.014-.055.05-.103.099-.133.049-.029.108-.038.164-.024.055.014.103.049.133.098z"/><path d="m450.952 135.801.526 1.082c.012.025.02.053.021.081.002.028-.002.057-.011.083-.009.027-.024.052-.042.073-.019.021-.042.039-.067.051-.026.012-.053.02-.082.021-.028.002-.056-.002-.083-.011s-.052-.024-.073-.042c-.021-.019-.038-.042-.051-.067 0 0-.519-1.068-.524-1.077-.025-.051-.03-.11-.012-.165.018-.054.057-.099.108-.125.051-.025.11-.03.165-.012.054.018.099.057.125.108z"/><path d="m451.961 137.986.441 1.122c.014.052.009.107-.015.155-.023.048-.064.085-.114.105-.05.019-.106.019-.156 0s-.091-.056-.115-.104c0 0-.433-1.103-.438-1.113-.018-.052-.016-.109.006-.16.022-.05.063-.09.114-.111.051-.022.108-.022.16-.003.052.02.094.059.117.109z"/><path d="m452.794 140.248.342 1.155c.011.053.002.109-.025.155-.028.046-.072.081-.124.096s-.108.011-.156-.013c-.049-.024-.087-.065-.106-.116 0 0-.335-1.136-.34-1.146-.013-.053-.006-.109.02-.157.027-.048.071-.084.123-.1.052-.017.108-.013.158.01.049.023.088.065.108.116z"/><path d="m453.414 142.576c-.034.203.479 1.393.062 1.436-.392.11-.373-1.166-.478-1.343-.005-.051.01-.103.041-.145.03-.042.075-.071.126-.083.051-.011.104-.004.15.021.045.025.081.065.099.114z"/><path d="m453.828 144.954c-.053.199.328 1.436-.079 1.436-.404.07-.256-1.196-.345-1.383-.007-.056.009-.113.044-.157.035-.045.086-.074.142-.081s.113.009.157.043c.045.035.074.086.081.142z"/><path d="m453.991 147.36c-.075.194.179 1.46-.24 1.419-.406.029-.129-1.216-.198-1.412-.001-.058.021-.114.061-.156.041-.042.096-.066.154-.067s.114.022.156.062.066.096.067.154z"/><path d="m453.892 149.772c-.093.184.027 1.469-.373 1.388-.407-.015 0-1.223-.05-1.436.003-.028.012-.055.025-.079.014-.025.032-.046.054-.064.022-.017.047-.03.074-.038s.055-.01.083-.007c.027.003.054.012.079.025.024.014.046.032.063.054.018.022.031.047.039.074.007.027.01.055.006.083z"/><path d="m453.565 152.162c-.113.172-.125 1.462-.512 1.34-.405-.055.122-1.216.093-1.421.011-.056.043-.105.09-.137.047-.031.104-.043.16-.032s.104.043.136.09.043.104.033.16z"/><path d="m452.988 154.505c-.127.16-.263 1.436-.637 1.285-.397-.093.24-1.196.24-1.407.024-.042.061-.075.106-.092.045-.018.095-.02.141-.006s.086.044.114.084c.027.04.04.088.036.136z"/><path d="m452.196 156.788c-.141.148-.39 1.412-.749 1.22-.385-.124.344-1.172.354-1.378.023-.05.064-.088.115-.108.05-.02.107-.02.157 0 .051.02.091.059.114.109.023.049.026.105.009.157z"/><path d="m451.208 158.978c-.151.136-.503 1.373-.843 1.156-.373-.156.438-1.142.464-1.345.026-.05.07-.089.123-.106.053-.018.111-.014.161.011s.088.069.106.122c.018.054.014.112-.011.162z"/><path d="m450.064 161.095c-.161.125-.601 1.333-.924 1.091-.361-.182.522-1.108.56-1.306.029-.048.075-.083.129-.097.055-.014.112-.006.161.023.048.028.083.075.097.129.013.054.005.112-.023.16z"/><path d="m448.75 163.112c-.168.113-.684 1.29-.991 1.029-.347-.205.591-1.072.644-1.268.032-.046.08-.077.135-.087.055-.011.112.002.158.033.046.032.078.081.088.136s-.002.111-.034.157z"/><path d="m447.326 165.048c-.175.103-.758 1.249-1.048.969-.335-.222.653-1.036.718-1.227.165-.223.51.045.332.258z"/><path d="m445.797 166.903c-.18.093-.821 1.196-1.096.912-.323-.24.718-1.001.778-1.197.177-.203.517.082.318.285z"/><path d="m444.177 168.676c-.182.086-.873 1.168-1.134.862-.311-.24.751-.957.832-1.151.185-.204.498.095.302.289z"/><path d="m442.483 170.375c-.187.079-.922 1.132-1.168.816-.302-.263.79-.935.876-1.117.194-.194.493.117.292.301z"/><path d="m440.731 172.008c-.189.071-.957 1.096-1.196.773-.29-.276.825-.907.918-1.084.042-.037.096-.056.151-.053s.107.028.144.069c.037.042.056.096.052.151-.003.055-.028.107-.069.144z"/><path d="m438.905 173.575c-.189.065-.995 1.063-1.22.732-.28-.282.854-.88.957-1.053.042-.035.097-.052.152-.047.055.006.106.032.141.075.035.042.052.097.047.152s-.032.106-.074.141z"/><path d="m437.041 175.085-.938.74c-.044.03-.097.042-.149.035-.053-.008-.1-.035-.133-.077-.033-.041-.049-.094-.045-.146.005-.053.029-.102.068-.138l.939-.742c.043-.034.098-.05.153-.043.055.006.105.035.14.078.034.043.05.099.043.154-.006.055-.035.105-.078.139z"/><path d="m435.167 176.571c-.191.062-1 1.05-1.222.718-.278-.285.863-.876.957-1.046.043-.03.096-.042.148-.035.052.008.099.035.132.076s.049.092.046.145c-.004.052-.027.101-.065.137z"/><path d="m433.313 178.085c-.192.065-.986 1.063-1.214.737-.282-.28.852-.888.958-1.058.043-.029.095-.04.146-.033.051.008.098.035.13.075.032.041.048.092.044.144-.003.051-.026.1-.064.135z"/><path d="m431.477 179.61c-.186.069-.957 1.079-1.196.756-.287-.275.837-.9.931-1.072.042-.033.095-.048.148-.042.053.005.102.031.137.072.034.04.052.092.049.146-.002.053-.025.103-.064.14z"/><path d="m429.668 181.173c-.186.072-.957 1.093-1.196.775-.292-.268.823-.912.911-1.086.199-.18.479.134.276.308z"/><path d="m427.89 182.766-.876.811c-.191.189-.478-.119-.282-.299l.881-.816c.02-.018.043-.032.068-.041.026-.01.053-.014.08-.012.027.001.053.007.078.019.024.011.046.027.064.047.019.02.033.044.042.069.009.026.013.053.012.08s-.008.053-.019.077c-.012.025-.028.047-.048.065z"/><path d="m426.148 184.4c-.184.079-.897 1.137-1.146.833-.304-.256.78-.957.861-1.129.187-.189.479.11.287.294z"/><path d="m424.459 186.08s-.828.857-.831.862c-.182.194-.478-.096-.296-.285l.832-.864c.182-.196.479.094.297.285z"/><path d="m422.812 187.813c-.179.091-.816 1.197-1.086.909-.318-.239.718-1.005.782-1.196.175-.199.479.076.307.273z"/><path d="m421.245 189.607c-.175.103-.759 1.233-1.041.958-.328-.216.665-1.037.718-1.221.036-.037.084-.059.135-.062.052-.003.102.013.142.046.04.032.066.078.074.129s-.004.103-.033.146z"/><path d="m419.771 191.486-.692.957c-.032.045-.08.075-.133.084-.054.009-.11-.004-.154-.036s-.074-.08-.083-.133c-.009-.054.003-.11.035-.154l.689-.957c.032-.045.08-.075.134-.084.054-.01.11.003.155.035.044.032.075.08.084.134s-.003.109-.035.154z"/><path d="m418.424 193.439c-.158.125-.582 1.323-.898 1.094-.354-.168.519-1.123.553-1.312.014-.022.033-.042.055-.057.022-.016.046-.027.072-.033.026-.005.053-.006.08-.002.026.005.051.015.074.029s.042.033.058.055c.015.022.026.046.032.072s.007.053.002.08c-.004.026-.014.051-.028.074z"/><path d="m417.244 195.499c-.146.139-.448 1.372-.788 1.175-.368-.131.41-1.167.424-1.359.024-.048.067-.085.118-.101.052-.017.108-.013.156.011.048.025.085.067.102.119.016.051.012.107-.012.155z"/><path d="m416.284 197.665-.38 1.134c-.017.051-.054.093-.102.117-.048.023-.104.027-.154.01-.051-.017-.093-.054-.117-.102s-.027-.103-.01-.154l.383-1.146c.008-.027.021-.052.039-.073.018-.022.04-.039.065-.052.025-.012.052-.019.08-.021s.055.003.082.012c.026.01.05.025.07.044.02.02.036.043.047.069.01.025.016.053.015.081 0 .028-.006.055-.018.081z"/><path d="m415.605 199.931c0 .021-.209 1.153-.213 1.175-.01.053-.04.099-.084.13-.044.03-.098.042-.151.033-.053-.01-.099-.04-.13-.084-.03-.044-.042-.098-.033-.151l.216-1.196c.009-.053.039-.1.083-.13.044-.031.099-.043.151-.033.053.009.1.039.13.083.031.044.042.099.033.151z"/><path d="m415.279 202.267c-.076.187.148 1.436-.239 1.39-.388.031-.098-1.237-.163-1.416.002-.027.009-.052.02-.076.012-.024.028-.045.048-.063.02-.017.043-.03.068-.039.025-.008.052-.012.078-.01.027.002.052.009.076.02.024.012.045.028.063.048.017.02.03.043.039.068.008.025.012.052.01.078z"/><path d="m415.303 204.626.141 1.196c.006.053-.009.107-.042.148-.033.042-.082.069-.135.075s-.106-.009-.148-.042c-.042-.034-.068-.082-.074-.135l-.144-1.197c-.003-.026-.001-.053.007-.078.007-.026.019-.05.036-.07.016-.021.037-.038.06-.051s.049-.021.075-.024c.027-.003.053-.001.079.006.025.008.049.02.07.036.021.017.038.038.051.061s.021.049.024.075z"/><path d="m415.655 206.967.277 1.151c.012.051.004.104-.023.148-.027.045-.07.077-.12.091s-.103.007-.149-.018-.08-.066-.095-.116l-.283-1.172c-.01-.051 0-.104.028-.148.028-.043.071-.074.122-.087.05-.012.103-.005.148.021s.078.068.092.118z"/><path d="m416.267 209.256s.383 1.125.386 1.134c.01.049.003.099-.021.142-.024.044-.064.076-.111.092-.046.016-.097.014-.143-.005s-.082-.055-.103-.099l-.388-1.142c-.016-.05-.012-.105.013-.152.024-.047.066-.083.116-.099.051-.016.105-.012.153.013.047.024.082.066.098.116z"/><path d="m417.071 211.494c0 .196.718 1.252.347 1.369-.339.182-.588-1.084-.717-1.22-.021-.049-.021-.104-.001-.153.021-.049.059-.088.108-.108.049-.021.104-.021.153 0 .049.02.088.059.108.107z"/><path d="m417.998 213.689s.5 1.081.5 1.084c.011.023.017.049.018.075s-.003.052-.012.077c-.009.024-.023.047-.041.066-.017.019-.039.035-.062.046-.024.011-.05.017-.076.018s-.052-.003-.077-.012c-.024-.009-.047-.022-.066-.04s-.035-.039-.046-.063l-.502-1.089c-.022-.048-.023-.103-.004-.152.018-.05.056-.089.104-.111.049-.022.103-.023.153-.004.049.019.089.056.111.105z"/><path d="m419.019 215.847c.02.194.797 1.196.438 1.34-.325.203-.655-1.039-.797-1.165-.023-.048-.026-.103-.009-.153.018-.05.054-.091.102-.114.047-.023.102-.027.152-.009.05.017.091.053.114.101z"/><path d="m420.082 217.986c.019.191.811 1.197.455 1.333-.323.211-.668-1.027-.809-1.153-.022-.047-.025-.101-.008-.149.017-.049.052-.09.098-.113s.099-.028.148-.012c.05.015.091.049.116.094z"/><path d="m421.159 220.13.478 1.101c.022.048.023.103.004.152s-.057.089-.105.11c-.049.022-.103.023-.152.004-.05-.019-.089-.057-.11-.105 0 0-.479-1.087-.479-1.094-.022-.048-.024-.103-.006-.153s.056-.09.104-.113c.048-.022.103-.024.153-.006.05.019.09.056.113.104z"/><path d="m422.09 222.356.404 1.132c.013.048.007.099-.017.143-.023.044-.062.078-.109.095-.047.016-.099.014-.144-.005-.046-.02-.083-.056-.103-.101l-.402-1.125c-.014-.048-.009-.1.013-.144.023-.045.061-.079.108-.097.047-.017.098-.017.145.002.046.019.083.055.105.1z"/><path d="m422.862 224.624.336 1.154c.014.05.008.104-.017.15-.025.045-.067.079-.117.094-.051.015-.104.009-.15-.016-.046-.026-.08-.068-.095-.118 0 0-.332-1.144-.335-1.149-.009-.048 0-.098.025-.14.026-.042.066-.073.113-.088.047-.014.097-.01.142.011.044.02.079.057.098.102z"/><path d="m423.501 226.939.276 1.17c.012.051.003.104-.024.148-.028.045-.072.077-.122.089-.051.012-.105.003-.149-.024-.044-.028-.076-.072-.088-.122 0 0-.273-1.161-.273-1.166-.011-.05-.003-.102.024-.146.027-.043.07-.075.119-.087.05-.013.103-.005.147.02.044.026.077.068.09.118z"/><path d="m424.021 229.295c-.036.187.438 1.376.06 1.41-.367.105-.347-1.173-.445-1.333-.011-.051 0-.104.029-.147.029-.044.074-.074.125-.084s.104 0 .147.029c.044.029.074.074.084.125z"/><path d="m424.425 231.65c-.043.185.373 1.395 0 1.41-.368.088-.289-1.197-.38-1.352.002-.046.02-.089.05-.122.03-.034.072-.056.116-.063.045-.007.091.002.13.025.039.024.069.06.084.102z"/><path d="m424.719 234.031.106 1.197c.001.049-.017.097-.051.134-.033.037-.079.06-.129.064-.049.004-.098-.01-.137-.041-.04-.03-.066-.075-.073-.124l-.106-1.196c0-.05.018-.098.051-.135s.079-.06.129-.064c.049-.004.099.01.138.041s.065.075.072.124z"/><path d="m424.904 236.424.05 1.197c-.003.048-.024.094-.059.127-.035.034-.081.054-.13.056-.048.001-.095-.015-.133-.046-.037-.031-.061-.075-.068-.123 0 0-.05-1.197-.05-1.197.003-.048.024-.093.059-.127s.081-.054.129-.055c.049-.002.096.014.133.045.038.031.062.075.069.123z"/><path d="m424.978 238.825v1.196c-.005.048-.028.093-.064.125s-.083.05-.131.05-.095-.018-.131-.05-.059-.077-.064-.125v-1.196c.005-.048.028-.092.064-.125.036-.032.083-.05.131-.05s.095.018.131.05c.036.033.059.077.064.125z"/><path d="m424.937 241.225-.057 1.196c-.003.052-.026.1-.064.135-.038.034-.088.052-.14.05-.051-.003-.099-.026-.134-.064-.034-.038-.052-.088-.05-.14l.058-1.196c.002-.052.024-.1.061-.135.038-.035.088-.054.14-.052.051.002.1.024.135.062s.053.088.051.139z"/><path d="m424.803 243.622c-.086.168.046 1.436-.325 1.369-.376 0 0-1.223-.062-1.402.004-.051.029-.099.068-.132.04-.033.091-.05.142-.045.052.004.099.029.132.068.033.04.05.091.045.142z"/><path d="m424.55 246.009c-.094.162-.022 1.435-.388 1.352-.376-.015.045-1.221 0-1.403.003-.025.011-.049.024-.072.013-.022.03-.041.05-.057.02-.015.043-.027.068-.033.025-.007.05-.009.076-.005.025.003.049.011.071.024.023.013.042.03.058.05.015.02.026.043.033.068s.008.05.005.076z"/><path d="m424.186 248.38c-.101.158-.089 1.435-.448 1.333-.373-.032.101-1.218.067-1.4.013-.047.042-.088.083-.114s.091-.036.138-.028c.048.008.091.035.121.073.029.039.043.087.039.136z"/><path d="m423.712 250.735-.278 1.168c-.015.046-.047.085-.089.109-.043.024-.093.031-.141.019-.047-.011-.088-.04-.115-.081s-.038-.09-.03-.138c0 0 .277-1.161.277-1.163.016-.045.048-.083.09-.107.041-.023.09-.03.137-.019s.088.038.115.077c.028.039.04.087.034.135z"/><path d="m423.131 253.062-.333 1.154c-.018.045-.051.082-.095.104-.043.021-.093.026-.14.012-.047-.013-.086-.044-.112-.085-.025-.042-.033-.091-.024-.139 0 0 .33-1.146.33-1.148.016-.048.049-.087.093-.111.044-.023.095-.029.143-.016s.089.044.115.087c.025.043.033.094.023.142z"/><path d="m422.437 255.36-.386 1.137c-.016.048-.051.088-.097.11-.046.023-.099.026-.147.009-.048-.016-.088-.051-.11-.097-.023-.046-.026-.098-.009-.147l.385-1.132c.016-.048.05-.088.095-.111.046-.023.098-.027.147-.011.048.016.088.051.111.096s.026.098.011.146z"/><path d="m421.637 257.624-.44 1.117c-.019.047-.055.085-.102.106-.047.02-.1.021-.147.002s-.085-.056-.105-.102c-.02-.047-.021-.1-.003-.147 0 0 .438-1.11.438-1.113.018-.047.055-.086.101-.107.047-.021.099-.022.147-.004s.086.054.107.101c.021.046.022.099.004.147z"/><path d="m420.73 259.847-.493 1.096c-.023.041-.062.072-.107.087s-.095.012-.138-.008-.078-.055-.097-.099-.02-.093-.005-.138l.479-1.091c.02-.048.059-.086.107-.106.048-.019.102-.019.15.002.048.02.086.059.106.107.019.048.019.102-.002.15z"/><path d="m419.72 262.024c-.138.122-.478 1.355-.799 1.156-.344-.134.441-1.141.457-1.323.025-.041.064-.07.11-.083.046-.014.095-.009.137.012.043.021.076.057.094.101.017.044.018.093.001.137z"/><path d="m418.613 264.154c-.144.115-.548 1.331-.852 1.118-.34-.148.493-1.12.517-1.302.025-.042.066-.072.114-.084.047-.013.097-.006.14.017.043.024.076.063.091.11.014.047.011.097-.01.141z"/><path d="m417.406 266.229c-.148.11-.607 1.304-.899 1.077-.333-.163.541-1.094.574-1.273.026-.043.068-.075.117-.087s.101-.004.144.022.074.068.086.117.005.101-.022.144z"/><path d="m416.109 268.249c-.153.1-.665 1.275-.945 1.036-.325-.18.589-1.072.63-1.249.03-.037.073-.061.12-.068.047-.006.095.005.134.031.039.027.067.067.079.113.011.046.005.095-.018.137z"/><path d="m414.724 270.216c-.158.093-.718 1.244-.988.993-.316-.191.636-1.043.684-1.218.03-.04.075-.067.124-.074.05-.008.1.005.14.035.041.029.068.074.075.124.007.049-.005.1-.035.14z"/><path d="m413.257 272.106c-.16.087-.77 1.214-1.029.958-.306-.204.68-1.015.735-1.197.031-.039.077-.064.127-.069s.1.01.14.042c.039.031.063.077.069.127.005.05-.01.1-.042.139z"/><path d="m411.711 273.941c-.163.082-.818 1.18-1.065.91-.299-.216.718-.989.783-1.158.034-.033.079-.051.126-.052.047 0 .093.017.128.048s.058.074.063.121c.005.046-.007.093-.035.131z"/><path d="m410.101 275.72c-.165.074-.864 1.149-1.101.866-.287-.225.761-.957.828-1.124.165-.182.447.083.273.258z"/><path d="m408.409 277.421c-.17.067-.907 1.113-1.132.823-.28-.239.794-.928.869-1.091.172-.175.442.101.263.268z"/><path d="m406.662 279.07c-.172.06-.957 1.079-1.161.783-.27-.24.828-.9.907-1.06.18-.168.438.117.254.277z"/><path d="m404.855 280.644c-.172.055-.981 1.044-1.184.742-.261-.254.859-.871.943-1.027.184-.162.433.132.241.285z"/><path d="m402.998 282.159-.957.734c-.039.026-.087.035-.133.027s-.087-.032-.116-.069c-.028-.037-.042-.084-.038-.13.004-.047.025-.09.06-.122l.943-.732c.038-.032.088-.048.138-.043s.096.029.128.068.048.089.043.139-.029.096-.068.128z"/><path d="m401.091 283.617c-.175.043-1.046.976-1.228.663-.239-.271.915-.812 1.008-.957.04-.024.087-.032.132-.023.045.01.086.035.113.073.028.037.04.083.036.129-.005.046-.027.089-.061.12z"/><path d="m399.141 285.007c-.175.038-1.077.957-1.249.627-.24-.278.94-.785 1.038-.931.04-.028.09-.039.138-.03.049.008.091.036.119.076.028.041.039.09.03.139-.008.048-.036.091-.076.119z"/><path d="m397.15 286.343c-.177.033-1.103.911-1.266.588-.227-.282.957-.756 1.065-.9.041-.026.091-.035.139-.025s.09.039.117.08c.026.042.036.092.025.14-.01.048-.039.09-.08.117z"/><path d="m395.121 287.618c-.178.029-1.128.883-1.281.555-.22-.287.981-.718 1.087-.869.041-.025.091-.034.139-.022.047.011.089.041.114.082.026.042.034.092.023.139-.011.048-.041.089-.082.115z"/><path d="m393.058 288.841c-.177.022-1.151.849-1.295.519-.21-.292 1-.701 1.111-.84.042-.024.093-.031.14-.018s.088.044.112.087c.024.042.031.093.018.14s-.044.088-.086.112z"/><path d="m390.957 290.006c-.177.019-1.17.823-1.307.479-.203-.297 1.02-.675 1.13-.812.042-.022.092-.026.138-.012s.085.046.108.088.028.091.016.138c-.013.046-.044.085-.085.11z"/><path d="m388.841 291.121c-.174.014-1.196.792-1.316.457-.194-.301 1.036-.653 1.151-.785.043-.017.091-.017.134-.001.043.017.078.049.099.09.02.041.025.088.013.132-.013.045-.042.083-.081.107z"/><path d="m386.695 292.186c-.175 0-1.197.763-1.326.426-.187-.304 1.051-.627 1.168-.756.043-.015.089-.013.131.004.042.018.075.05.095.091.019.04.023.087.011.13-.013.044-.041.081-.079.105z"/><path d="m384.524 293.201-1.091.49c-.022.01-.045.016-.069.016-.024.001-.048-.003-.071-.011-.045-.017-.082-.052-.102-.096s-.021-.094-.004-.139c.017-.046.051-.082.095-.102l1.092-.491c.044-.02.094-.022.139-.005.046.017.082.052.102.096s.022.094.005.14c-.017.045-.052.082-.096.102z"/><path d="m382.342 294.169c-.177 0-1.24.718-1.343.371-.174-.311 1.075-.581 1.197-.706.044-.019.095-.02.14-.002s.081.053.1.097c.02.044.021.095.003.14s-.053.081-.097.1z"/><path d="m380.124 295.103c-.177 0-1.252.687-1.35.345-.168-.314 1.086-.56 1.211-.682.045-.019.095-.018.139 0 .045.019.081.054.099.099s.018.095 0 .14c-.019.044-.055.08-.099.098z"/><path d="m377.893 295.974c-.174 0-1.261.663-1.352.318-.162-.316 1.096-.538 1.223-.656.043-.011.089-.005.129.015.039.021.07.055.086.097.016.041.016.087 0 .129s-.046.076-.086.097z"/><path d="m375.642 296.812c-.175 0-1.276.641-1.36.297-.155-.319 1.108-.522 1.235-.637.044-.011.09-.006.13.015s.07.056.086.099c.015.042.015.089-.002.13-.017.042-.049.076-.089.096z"/><path d="m373.392 297.611-1.134.385c-.044.01-.09.003-.129-.018-.039-.022-.069-.058-.084-.1-.014-.043-.013-.089.005-.131.018-.041.05-.074.091-.093l1.134-.386c.044-.01.09-.003.129.019s.069.057.083.1c.015.042.013.089-.004.13-.018.041-.05.075-.091.094z"/></g><path d="m324.834 83.184 1.469 8.7512-6.557-2.7687z" fill="#fa541c"/><path d="m284.651 84.7587 27.106 16.7513c.257.158.543.264.842.309.298.046.603.031.896-.044.292-.075.567-.208.807-.391.24-.184.44-.413.59-.676l15.793-27.8497c3.647-4.6879-46.601 12.9557-46.034 11.9004z" fill="#fdab76"/><path d="m324.834 83.1863-40.184 1.5794 37.647 2.9242.51 2.4074z" fill="#fa541c"/><path d="m320.771 90.346 5.532 1.589-4.008-4.2452z" fill="#fa541c"/><path d="m354.582 271.276h47.463c.381 0 .746-.152 1.015-.421.27-.269.421-.634.421-1.015s-.151-.746-.421-1.015c-.269-.27-.634-.421-1.015-.421h-47.463c-.381 0-.746.151-1.015.421-.269.269-.421.634-.421 1.015s.152.746.421 1.015.634.421 1.015.421z" fill="#22b8cf"/><path d="m356.159 392.283c2.929.212.019-121.105 1.015-122.125-.001-.268-.109-.525-.299-.714s-.447-.296-.716-.296c-2.929-.213-.019 121.105-1.014 122.125 0 .133.026.264.078.387.051.123.126.234.22.328s.206.168.329.218c.123.051.254.077.387.077z" fill="#22b8cf"/><path d="m383.617 392.283c2.929.212.019-121.105 1.014-122.125-.001-.268-.109-.525-.299-.714s-.447-.296-.715-.296c-2.93-.213-.02 121.105-1.015 122.125 0 .133.027.264.078.387s.126.234.22.328.206.168.329.218c.123.051.255.077.388.077z" fill="#22b8cf"/><path d="m419.071 393.051c.167-.002.331-.044.478-.124.146-.079.271-.194.364-.333.092-.139.148-.299.164-.465s-.009-.333-.073-.488c-1.321-.56-50.523-123.744-53.139-122.411-1.849 1.531 50.938 122.9 52.206 123.821z" fill="#22b8cf"/><path d="m451.075 393.051c.167-.002.331-.044.478-.124.146-.079.271-.194.364-.333.092-.139.148-.299.164-.465s-.009-.333-.073-.488c-1.321-.56-50.523-123.744-53.138-122.411-1.85 1.531 50.937 122.9 52.205 123.821z" fill="#22b8cf"/><path d="m375.086 289.81c1.045-.62 33.583 1.376 33.111-1.012 0-.133-.026-.265-.077-.388-.05-.122-.125-.234-.219-.328s-.206-.168-.328-.219c-.123-.051-.255-.077-.388-.077h-32.099c-1.305-.02-1.321 2.053 0 2.024z" fill="#22b8cf"/><path d="m417.035 310.835h-32.1v2.027h32.1z" fill="#22b8cf"/><path d="m426.568 333.884h-32.099v2.027h32.099z" fill="#22b8cf"/><path d="m404.469 358.961h32.1c.26-.013.505-.125.685-.314s.28-.439.28-.7c0-.26-.1-.511-.28-.699-.18-.189-.425-.301-.685-.314h-32.1c-1.309-.019-1.309 2.046 0 2.027z" fill="#22b8cf"/><path d="m414.137 382.012h32.097c.137.007.274-.014.403-.062s.247-.122.346-.217c.1-.094.179-.208.233-.335.054-.126.082-.262.082-.399 0-.138-.028-.274-.082-.4s-.133-.24-.233-.335c-.099-.095-.217-.168-.346-.216s-.266-.069-.403-.063h-32.097c-1.307-.019-1.324 2.046 0 2.027z" fill="#22b8cf"/><path d="m391.15 258.412c-.988.876-4.204.99-4.204.99-11.585-27.801-16.332-31.75-16.332-31.75 1.675 10.493.27 33.725.27 33.725-1.914.844-4.377 0-4.377 0-.141-14.847-2.128-29.618-5.915-43.974 7.83-.175 11.994-2.855 13.353-3.929 6.535 10.522 17.205 44.938 17.205 44.938z" fill="#770508"/><path d="m381.263 202.714c-.479 3.443-1.881 7.2-4.695 11.19l-1.07-.881c.758-3.512.938-7.124.534-10.694 1.735-.331 3.783.019 5.231.385z" fill="#fdbab9"/><path d="m375.937 212.88-4.992-.407-2.154 1.994s.512.718 2.111.301c1.246-.274 2.513-.444 3.788-.507 0 0 2.208.995 2.235-.866z" fill="#fdbab9"/><path d="m358.172 176.056c1.342-4.357 3.788-.239.287 1.099z" fill="#fdbab9"/><path d="m258.417 146.764h-15.828c-.581-.001-1.139-.232-1.55-.644-.411-.411-.642-.969-.642-1.55v-15.878c.001-.551.208-1.082.582-1.487s.886-.654 1.436-.698l16.87-1.366c.313-.025.628.017.923.124.296.107.564.276.789.496.224.22.398.485.511.778s.161.607.142.921l-1.036 17.241c-.034.559-.28 1.085-.689 1.468-.408.384-.948.597-1.508.595z" fill="#fee9d1"/><g fill="#fa541c" opacity=".72"><path d="m108.982 345.466c0 1.627.541 2.946 1.211 2.946h65.841c.67 0 1.213-1.319 1.213-2.946s-.543-2.946-1.213-2.946h-65.841c-.67 0-1.211 1.319-1.211 2.946z"/><path d="m108.982 355.509c0 1.627.541 2.946 1.211 2.946h65.841c.67 0 1.213-1.319 1.213-2.946s-.543-2.946-1.213-2.946h-65.841c-.67 0-1.211 1.319-1.211 2.946z"/><path d="m108.982 365.55c0 1.628.541 2.946 1.211 2.946h65.841c.67 0 1.213-1.318 1.213-2.946 0-1.627-.543-2.945-1.213-2.945h-65.841c-.67 0-1.211 1.318-1.211 2.945z"/><path d="m108.982 375.594c0 1.627.541 2.945 1.211 2.945h65.841c.67 0 1.213-1.318 1.213-2.945 0-1.628-.543-2.946-1.213-2.946h-65.841c-.67 0-1.211 1.318-1.211 2.946z"/><path d="m203.259 363.846h-18.665c-2.747-.04-2.757 4.281 0 4.241h18.665c2.748.04 2.757-4.281 0-4.241z"/><path d="m231.724 363.846h-18.665c-2.745-.04-2.755 4.281 0 4.241h18.665c2.745.04 2.754-4.281 0-4.241z"/><path d="m241.523 368.09h18.666c2.747.04 2.756-4.282 0-4.241h-18.666c-2.747-.043-2.764 4.279 0 4.241z"/><path d="m203.259 370.444c-23.736 1.144-20.725-5.612-20.785 14.611 0 .563.223 1.103.621 1.501.399.398.938.622 1.501.622 23.736-1.144 20.726 5.612 20.784-14.612 0-.278-.055-.554-.161-.812-.107-.257-.263-.491-.46-.688s-.43-.354-.688-.461c-.257-.106-.533-.161-.812-.161z"/><path d="m231.724 370.444c-23.738 1.144-20.726-5.612-20.786 14.611 0 .563.224 1.103.621 1.501.398.398.937.621 1.5.622 23.738-1.144 20.725 5.612 20.785-14.612 0-.562-.223-1.102-.621-1.5-.397-.398-.936-.622-1.499-.622z"/><path d="m260.186 370.444c-23.736 1.144-20.723-5.612-20.783 14.611 0 .563.223 1.103.621 1.501s.937.621 1.499.622c23.739-1.144 20.726 5.612 20.786-14.612 0-.563-.224-1.102-.622-1.5-.398-.399-.938-.622-1.501-.622z"/><path d="m236.917 187.578h-7.158v27.35h7.158z"/><path d="m248.875 196.978h-7.158v17.95h7.158z"/><path d="m260.832 173.747h-7.157v41.178h7.157z"/><path d="m272.79 205.033h-7.157v9.893h7.157z"/><path d="m284.748 179.253h-7.157v35.675h7.157z"/><path d="m296.706 185.429h-7.158v29.497h7.158z"/><path d="m308.664 192.144h-7.158v22.784h7.158z"/><path d="m320.624 165.422h-7.158v49.504h7.158z"/><path d="m332.582 170.66h-7.158v44.268h7.158z"/><path d="m344.539 178.58h-7.157v36.345h7.157z"/><path d="m356.497 205.952h-7.157v8.974h7.157z"/><path d="m282.432 135.77c-4.806-.026-4.806-7.33 0-7.354 4.807.027 4.807 7.328 0 7.354zm0-5.894c-2.872-.041-2.872 4.475 0 4.434 2.876.041 2.876-4.475 0-4.434z"/><path d="m282.432 124.243c1.096.003 2.179.235 3.18.681 1.002.446 1.898 1.097 2.633 1.91s1.292 1.771 1.634 2.812c.343 1.041.464 2.143.356 3.234-.074.945 1.252.454 1.747.421.577-.096.462-.778.479-1.216.043-5.968-5.356-10.733-11.271-9.952-.807.086-.299 1.263-.276 1.73.166.725 1.003.328 1.518.38z"/><path d="m282.432 118.596c3.58.003 7.012 1.427 9.543 3.959s3.954 5.965 3.955 9.545c0 .873 1.25.382 1.726.361l.462-.534c-.019-9.356-8.629-16.751-17.895-15.36-.78.098-.275 1.266-.254 1.723.357.928 1.692.117 2.463.306z"/><path d="m282.432 112.941c4.937.002 9.684 1.91 13.25 5.325s5.677 8.075 5.893 13.008c5.983 4.223-.342-21.171-19.143-20.523-.917.172-3.535-.311-3.59.857l.189 1.105c.306.95 2.506-.004 3.401.228z"/><path d="m244.838 143.672c-.444-.004-.868-.181-1.181-.495-.314-.313-.491-.737-.494-1.181.26-.325-.615-11.129.519-10.699 1.316-.134-.058 10.798.718 11.164.063.06.139.106.221.136s.17.042.257.036l12.063-.718c1.245.586.343-10.321.601-10.63-.001-.088-.02-.176-.056-.257-.036-.082-.089-.154-.155-.214-.066-.059-.144-.105-.228-.133s-.174-.038-.262-.03l-10.034.993c-.56.137-.718.5-.455 1.008 5.808 8.007 3.331 6.593 9.07-.326.395-.543 1.247.089.833.625-5.894 7.638-4.739 8.962-10.743.311-.772-.991-.062-2.572 1.197-2.654l10.034-.993c.233-.021.468.006.69.081.222.074.426.194.599.351.174.158.312.35.408.564.095.214.144.445.145.679-.043 15.854 1.97 10.606-13.747 12.382z"/></g><path d="m360.325 267.31c2.506.069 8.469 1.069 11.171.263.014.081.011.165-.009.245-.019.08-.056.156-.106.221-.05.066-.114.12-.186.159-.073.04-.153.064-.235.071-4.152.007-12.652.857-10.635-.959z" fill="#063963"/><path d="m367.504 268.039c-2.694-.117-5.2-.559-7.169-.729 3.187-3.042 8.021-4.145 9.811-3.975.883 1.237 1.356 2.719 1.355 4.238-.534.215-2.377.538-3.997.466z" fill="#063963"/><path d="m370.444 260.499-.163 3.214c-.008.17-.075.332-.19.457-.114.126-.269.208-.437.232-.531.084-1.766.051-1.886-.775l-.562-3.128z" fill="#fdbab9"/><path d="m392.984 267.848c.854-.119 1.239-.562 1.402-1.036.189 1.915-3.522 2.065-4.372.878.644.319 1.546.357 2.97.158z" fill="#063963"/><path d="m388.959 260.478c3.506-.794 4.695 3.65 5.427 6.335-.34 1.464-3.735 1.28-4.372.878-1.273-1.919-3.252-6.289-1.055-7.213z" fill="#063963"/><path d="m390.204 257.498.794 3.161c.201 1.065-1.237 1.4-2.091 1.369-.778.07-1.455-3.35-1.752-3.802z" fill="#fdbab9"/><path d="m369.834 226.992c.065-.001.13-.019.186-.052.056-.034.103-.082.135-.139s.048-.122.047-.188c-.001-.065-.019-.129-.052-.186-1.15-1.713-2.735-3.089-4.593-3.987-.088-.04-.189-.045-.28-.012s-.166.1-.209.188c-.042.087-.048.188-.017.28s.097.168.183.212c3.269 1.575 3.958 3.716 4.6 3.884z" fill="#b3200e"/><path d="m371.966 181.502c1.482 7.392.958 20.623.604 26.656-.434 2.103 2.871 6.085 1.84 6.361-1.604.823-7.031 3.374-13.322 3.692-.205.008-.406-.054-.57-.176-.165-.122-.283-.296-.335-.494-4.666-17.424-10.086-28.558-10.086-28.558 5.985-9.558 21.869-7.481 21.869-7.481z" fill="#fa541c"/><path d="m370.31 190.622 1.656-9.12s11.059 8.455 9.295 21.214c-1.436-.366-3.496-.718-5.231-.375-.508-4.095-2.018-8.541-5.72-11.719z" fill="#fa541c"/><path d="m350.097 188.982 4.269 9.206c-.689 5.55-3.671 7.95-6.887 8.869-.158-2.058-.643-4.078-1.436-5.983 4.111-4.257 4.054-12.092 4.054-12.092z" fill="#fa541c"/><path d="m346.045 201.058c.794 1.905 1.278 3.924 1.436 5.982-8.579 3.331-10.847-3.111-10.847-3.111 4.401-.56 6.408.165 9.411-2.871z" fill="#fdbab9"/><path d="m354.03 177.633 2.061 7.576c.054.2.151.387.283.548.132.16.297.291.483.383.186.093.39.145.598.153.207.008.415-.028.607-.105 1.623-.675 5.181-1.745 3.671-4.21l-4.281-6.389z" fill="#fdbab9"/><path d="m332.704 198.851 52.806 19.219c.524.19 1.003.487 1.406.871.404.385.724.849.94 1.363.215.514.322 1.067.314 1.624s-.132 1.107-.363 1.614c-.173.499-.449.956-.809 1.343-.36.386-.797.693-1.283.901-.485.207-1.009.312-1.537.306s-1.049-.122-1.53-.341l-51.277-23.719z" fill="#063963"/><path d="m279.424 187.288c.644 37.438 57.377 37.433 58.013 0-.641-37.439-57.374-37.439-58.013 0zm4.262 0c.548-31.937 48.949-31.932 49.492 0-.548 31.939-48.949 31.934-49.492 0z" fill="#063963"/><path d="m337.268 205.101c-.431.338-1.914-.368-2.814-.854-1.158-.548-.134-2.644.524-2.917.742-.184 4.07 2.381 2.29 3.771z" fill="#fdbab9"/><path d="m353.586 170.188c-.268.833-4.308 9.5 0 9.78 2.378.414 4.381-.77 5.465-2.819 0 0 1.702-3.156 1.319-4.451-.383-1.294-6.784-2.51-6.784-2.51z" fill="#fdbab9"/><path d="m358.243 175.694h-.309s1.24-2.539.151-2.987c-1.089-.447-5.401-1.326-6.329-2.855-1.218-1.469.775-4.786 1.402-3.649.015.028.038.052.066.067.029.015.061.022.093.018.032-.003.062-.016.087-.037.024-.02.042-.048.051-.079.008-.03.024-.057.047-.078s.052-.034.083-.039c.03-.005.062-.001.09.012s.052.033.069.059c1.472 2.214 8.122 1.407 8.046 5.341.001.028.01.054.025.077.014.022.035.041.058.054.024.013.051.02.078.02.027.001.054-.006.078-.019 2.02-.373 1.895 2.453-.266 4.068-.02.015-.037.035-.048.058-.011.022-.017.047-.017.073 0 .025.006.05.017.073.011.022.028.042.048.057 1.675.969-2.895 2.558-2.859 1.728l.112-1.797c.06-.304-.627-.134-.773-.165z" fill="#770508"/></svg>